<svg width="13" height="12" viewBox="0 0 13 12" fill="none" xmlns="http://www.w3.org/2000/svg">
<g id="&#231;&#188;&#150;&#231;&#187;&#132;">
<path id="Fill 1" fill-rule="evenodd" clip-rule="evenodd" d="M10.885 9.317H9.60499C9.30199 9.317 9.05699 9.072 9.05699 8.769C9.05699 8.466 9.30199 8.221 9.60499 8.221H10.885C11.008 8.221 11.108 8.121 11.108 7.999V1.318C11.108 1.196 11.008 1.095 10.885 1.095H4.20499C4.08199 1.095 3.98299 1.196 3.98299 1.318V2.585C3.98299 2.887 3.73699 3.132 3.43499 3.132C3.13199 3.132 2.88599 2.887 2.88599 2.585V1.318C2.88599 0.591 3.47799 0 4.20499 0H10.885C11.613 0 12.204 0.59 12.204 1.318V7.999C12.204 8.725 11.612 9.317 10.885 9.317Z" fill="#333333"/>
<g id="&#231;&#188;&#150;&#231;&#187;&#132;_2">
<mask id="mask0_95_1246" style="mask-type:luminance" maskUnits="userSpaceOnUse" x="0" y="2" width="11" height="10">
<path id="Clip 4" fill-rule="evenodd" clip-rule="evenodd" d="M0.694092 2.19171H10.0119V11.5094H0.694092V2.19171Z" fill="white"/>
</mask>
<g mask="url(#mask0_95_1246)">
<path id="Fill 3" fill-rule="evenodd" clip-rule="evenodd" d="M2.01285 3.28771C1.88985 3.28771 1.78985 3.38871 1.78985 3.51071V10.1897C1.78985 10.3127 1.88985 10.4127 2.01285 10.4127H8.69285C8.81585 10.4127 8.91485 10.3127 8.91485 10.1897V3.51071C8.91485 3.38871 8.81585 3.28771 8.69285 3.28771H2.01285ZM8.69285 11.5097H2.01285C1.28585 11.5097 0.693848 10.9177 0.693848 10.1897V3.51071C0.693848 2.78371 1.28585 2.19171 2.01285 2.19171H8.69285C9.41985 2.19171 10.0118 2.78271 10.0118 3.51071V10.1897C10.0118 10.9177 9.41985 11.5097 8.69285 11.5097Z" fill="#333333"/>
</g>
</g>
</g>
</svg>
