<svg width="15" height="15" viewBox="0 0 15 15" fill="none" xmlns="http://www.w3.org/2000/svg">
<g id="&#229;&#156;&#176;&#231;&#144;&#131;,&#232;&#183;&#168;&#229;&#162;&#131;">
<path id="&#229;&#189;&#162;&#231;&#138;&#182;" fill-rule="evenodd" clip-rule="evenodd" d="M0 7.5C0 3.35791 3.35791 0 7.5 0C11.6421 0 15 3.35791 15 7.5C15 11.6421 11.6421 15 7.5 15C3.35791 15 0 11.6421 0 7.5ZM13.5649 9.71058C13.8164 9.02093 13.9535 8.27651 13.9535 7.5C13.9535 4.69779 12.1674 2.31279 9.67151 1.42116L9.67744 1.47L9.69942 1.62733L9.72802 1.80349L9.74477 1.89802C9.78488 2.12128 9.84733 2.21512 10.0074 2.32256L10.1208 2.39302L10.1798 2.42791C10.733 2.7593 10.9612 3.15488 10.8426 3.91326C10.7083 4.77244 10.29 5.03581 9.45698 5.10802L9.20163 5.12791L9.11163 5.13663L9.03698 5.14674L8.97105 5.15826L8.90756 5.17256C8.76663 5.20779 8.6536 5.26326 8.55035 5.35291C8.46209 5.43 8.42442 5.55314 8.43454 5.82767L8.44046 5.93791C8.44151 5.95744 8.44326 5.97767 8.445 5.9986L8.45756 6.13256L8.49733 6.46849C8.63267 7.57256 8.51128 8.18407 7.73791 8.61558C7.47486 8.76413 7.17477 8.83422 6.87314 8.81756C6.43047 8.79488 6.06942 8.64279 5.52174 8.30407L5.32047 8.17674L5.12302 8.05116L4.95523 7.94756L4.81395 7.86419L4.73372 7.81919L4.66395 7.78186L4.60326 7.75221L4.55093 7.72919L4.50663 7.71279L4.46965 7.70233C4.43023 7.69326 4.40372 7.69535 4.38523 7.70581C4.27744 7.76442 4.20593 7.90012 4.1536 8.1907L4.13477 8.30721L4.11733 8.43907L4.10128 8.58733L4.06709 8.9557L4.04826 9.13151L4.02733 9.29093C3.95442 9.79884 3.84 10.0647 3.55605 10.3235C3.13535 10.7072 2.57233 10.8153 1.88512 10.6835C2.99477 12.6363 5.09337 13.9535 7.5 13.9535C7.77488 13.9535 8.04593 13.9364 8.31105 13.9029C7.96849 13.342 7.87047 12.779 8.04698 12.2257C8.17116 11.8357 8.33756 11.558 8.56605 11.3187L8.64698 11.2378L8.79384 11.1017C8.90895 10.9953 8.94767 10.9455 8.97977 10.8583L8.98395 10.846L8.99023 10.815L8.99233 10.7955L8.99477 10.7459L8.99407 10.6378L8.99058 10.5373C8.97244 10.0884 8.99547 9.84628 9.14965 9.53023C9.32337 9.17547 9.63593 8.8814 10.1051 8.63512C11.0679 8.13035 12.218 8.52802 13.5649 9.71058ZM10.591 9.56198C11.1079 9.29104 11.9491 9.62591 13.1033 10.7038C12.293 12.1181 10.9789 13.1745 9.42349 13.6619C9.05337 13.2195 8.94523 12.8536 9.04395 12.5431C9.1193 12.3063 9.20302 12.1664 9.32302 12.0412L9.37395 11.9902L9.56826 11.8092C9.75523 11.6274 9.87105 11.4652 9.96105 11.2217C10.0238 11.0519 10.0434 10.921 10.042 10.7097L10.0392 10.5722L10.034 10.432L10.0322 10.3238C10.0319 10.1606 10.0476 10.0762 10.0901 9.99C10.1578 9.85151 10.3067 9.71093 10.591 9.56198ZM13.1033 10.7038L13.1034 10.7037L13.1226 10.7219L13.1033 10.7038ZM8.58837 1.13791C8.23465 1.07791 7.87081 1.04686 7.5 1.04686V1.04651C3.93593 1.04651 1.04651 3.93593 1.04651 7.5C1.04651 8.17116 1.14907 8.81895 1.33953 9.42698C1.36545 9.43307 1.39088 9.44112 1.41558 9.45105C2.16733 9.75244 2.62919 9.75244 2.85105 9.55012C2.88907 9.51558 2.92012 9.45558 2.94767 9.35267L2.96512 9.27733C2.96817 9.26317 2.97108 9.24898 2.97384 9.23477L2.98988 9.13814L2.99791 9.08442L3.02058 8.89744L3.03558 8.75093L3.05128 8.57407C3.05756 8.5064 3.06384 8.44046 3.07081 8.37733L3.09279 8.19453C3.19151 7.45988 3.37849 7.06256 3.8843 6.78698C4.2157 6.60628 4.56802 6.61779 4.94477 6.76291L5.05256 6.80756L5.13977 6.84698L5.19523 6.87384L5.28 6.91884L5.37558 6.97395L5.535 7.07198L5.97035 7.35035L6.12454 7.44593C6.49116 7.66744 6.71965 7.76163 6.92651 7.77209C7.03465 7.77767 7.13023 7.7564 7.22791 7.70198C7.43581 7.58581 7.51221 7.41663 7.49651 7.01965L7.48919 6.89337L7.48326 6.825L7.46826 6.6764L7.42291 6.30174C7.41628 6.2393 7.41 6.1793 7.40477 6.1214L7.39151 5.95395C7.34756 5.28174 7.45151 4.92174 7.86384 4.56314C8.09826 4.35942 8.36023 4.23035 8.65465 4.15709L8.75756 4.13337C8.82553 4.11934 8.89408 4.10828 8.96302 4.10023L9.08163 4.08767L9.22291 4.07581L9.46116 4.05837L9.50407 4.05453L9.57802 4.04581C9.7214 4.02454 9.76116 3.98686 9.78663 3.87628L9.79779 3.81977L9.82291 3.65826C9.84628 3.49326 9.83686 3.45174 9.7357 3.38372L9.67744 3.34709L9.51872 3.25186L9.49465 3.23686C9.07047 2.97174 8.81546 2.64349 8.71465 2.08326L8.68221 1.89942L8.6543 1.72744L8.63023 1.56698L8.61105 1.41767L8.59709 1.27953L8.58837 1.15151V1.13791Z" fill="black"/>
</g>
</svg>
