<svg width="12" height="12" viewBox="0 0 12 12" fill="none" xmlns="http://www.w3.org/2000/svg">
    <g id="&#230;&#144;&#156;&#231;&#180;&#162;">
        <path id="&#229;&#189;&#162;&#231;&#138;&#182;" fill-rule="evenodd" clip-rule="evenodd"
            d="M9.4275 8.49676L11.7877 10.857C11.9655 11.0208 12.0392 11.2688 11.9798 11.5031C11.9204 11.7374 11.7374 11.9204 11.5031 11.9798C11.2688 12.0392 11.0208 11.9655 10.857 11.7877L8.49676 9.4275C6.30011 11.1327 3.15625 10.8365 1.31684 8.75087C-0.522567 6.66528 -0.423681 3.50904 1.54268 1.54268C3.50904 -0.423681 6.66528 -0.522567 8.75087 1.31684C10.8365 3.15625 11.1327 6.30011 9.4275 8.49676ZM1.62231 3.75515C1.01079 5.23231 1.34949 6.9324 2.48042 8.06242H2.47565C3.2169 8.80435 4.22266 9.22121 5.27142 9.22121C6.32019 9.22121 7.32594 8.80435 8.06719 8.06242C9.19812 6.9324 9.53682 5.23231 8.92531 3.75515C8.3138 2.27799 6.87254 1.31477 5.27381 1.31477C3.67507 1.31477 2.23382 2.27799 1.62231 3.75515Z"
            fill="white" />
    </g>
</svg>