<svg width="12" height="14" viewBox="0 0 12 14" fill="none" xmlns="http://www.w3.org/2000/svg">
<g id="&#231;&#173;&#137;&#229;&#190;&#133; (1)">
<path id="&#229;&#189;&#162;&#231;&#138;&#182;" fill-rule="evenodd" clip-rule="evenodd" d="M11.4 12.8333H10.8C10.8 10.533 9.53059 9.15833 8.58091 8.12988C8.5191 8.06295 8.45866 7.99749 8.4 7.93333C8.30804 7.84393 8.20826 7.75453 8.11064 7.66707L8.11064 7.66707C7.8261 7.41214 7.56 7.17373 7.56 7C7.56 6.88333 7.92 6.65 8.16 6.53333C9.12 5.83333 10.8 4.55 10.8 1.16667H11.4C11.76 1.16667 12 0.933333 12 0.583333C12 0.233333 11.76 0 11.4 0H0.6C0.24 0 0 0.233333 0 0.583333C0 0.933333 0.24 1.16667 0.6 1.16667H1.2C1.2 4.55 2.88 5.83333 3.84 6.53333C4.08 6.65 4.44 6.88333 4.44 7C4.44 7.14291 4.25995 7.32957 4.0377 7.56L4.03769 7.56C3.89705 7.70581 3.73952 7.86915 3.6 8.05C2.64 8.98333 1.2 10.3833 1.2 12.8333H0.6C0.24 12.8333 0 13.0667 0 13.4167C0 13.7667 0.24 14 0.6 14H11.4C11.76 14 12 13.7667 12 13.4167C12 13.0667 11.76 12.8333 11.4 12.8333ZM6.6 10.5H5.4C5.04 10.5 4.8 10.7333 4.8 11.0833C4.8 11.4333 5.04 11.6667 5.4 11.6667H6.6C6.96 11.6667 7.2 11.4333 7.2 11.0833C7.2 10.7333 6.96 10.5 6.6 10.5ZM4.25758 8.95102C3.43682 9.85184 2.4 10.9898 2.4 12.8333H9.6C9.6 10.9898 8.56319 9.85184 7.74242 8.95102C7.68019 8.88272 7.6192 8.81578 7.56 8.75C7.48379 8.67591 7.40758 8.6037 7.3326 8.53265C6.81726 8.04435 6.36 7.61109 6.36 7C6.36 6.3 6.84 5.95 7.44 5.6C8.4 4.9 9.6 3.96667 9.6 1.16667H2.4C2.4 3.96667 3.6 4.9 4.56 5.6C5.16 5.95 5.64 6.3 5.64 7C5.64 7.58333 5.04 8.16667 4.44 8.75C4.3808 8.81578 4.31981 8.88272 4.25758 8.95102Z" fill="white"/>
</g>
</svg>
