<svg width="13" height="14" viewBox="0 0 13 14" fill="none" xmlns="http://www.w3.org/2000/svg">
<g id="&#231;&#173;&#137;&#229;&#190;&#133;">
<path id="&#229;&#189;&#162;&#231;&#138;&#182;" fill-rule="evenodd" clip-rule="evenodd" d="M12.8312 4.97994L10.3558 4.33647H10.3552C10.3082 4.32432 10.2719 4.28441 10.2618 4.23382C10.2518 4.18324 10.2697 4.13094 10.3079 4.09932L12.7961 2.02936C12.8339 1.99701 12.8858 1.99086 12.9294 2.01356C12.9729 2.03627 13.0004 2.08377 13 2.13564L12.9872 4.85053C12.9866 4.89163 12.9686 4.93023 12.9382 4.95541C12.9079 4.98059 12.8685 4.98962 12.8312 4.97994ZM6.12627 3.07193H6.88521H6.88589C6.95536 3.07193 7.01178 3.13203 7.01215 3.20641V7.36803L9.26401 9.10179C9.29133 9.12251 9.30963 9.15422 9.31473 9.18965C9.31982 9.22509 9.31126 9.26122 9.29102 9.28977L8.83862 9.94482C8.79811 10.0063 8.71911 10.0171 8.66171 9.97374L6.05199 7.94426C6.01891 7.91968 6 7.87847 6 7.83509V3.20641C6.00037 3.13203 6.05679 3.07193 6.12627 3.07193Z" fill="white"/>
<path id="&#232;&#183;&#175;&#229;&#190;&#132;" d="M12.9161 9.2351L12.0327 8.9173C11.9687 8.89427 11.8989 8.92906 11.8754 8.9957C11.5991 9.77744 11.1634 10.4863 10.5987 11.0726C9.5638 12.1569 8.16057 12.7644 6.69856 12.761C5.23653 12.7645 3.83328 12.157 2.79843 11.0726C2.29517 10.5481 1.89333 9.92623 1.61506 9.2414C1.32969 8.53222 1.18343 7.76989 1.18505 7.00001C1.183 5.46957 1.76534 4.00213 2.80177 2.92601C3.83594 1.8417 5.23838 1.23375 6.69989 1.23621C8.39614 1.23167 9.99964 2.04856 11.046 3.45031L11.9781 2.68871C10.7053 0.9871 8.75726 -0.00458097 6.69656 1.59112e-05C2.96177 0.0014159 -0.0369897 3.16961 0.00034486 7.0714C0.0376794 10.906 3.02244 14 6.69989 14C9.50732 14.0037 12.0192 12.1693 12.9928 9.4045C13.0159 9.33551 12.9817 9.25982 12.9161 9.2351Z" fill="white"/>
</g>
</svg>
