<svg width="14" height="14" viewBox="0 0 14 14" fill="none" xmlns="http://www.w3.org/2000/svg">
<g id="&#229;&#133;&#179;&#233;&#151;&#173; (3)">
<path id="&#229;&#189;&#162;&#231;&#138;&#182;" fill-rule="evenodd" clip-rule="evenodd" d="M7 0C3.134 0 0 3.134 0 7C0 10.866 3.134 14 7 14C10.866 14 14 10.866 14 7C14 3.134 10.866 0 7 0ZM1 7C1 3.6865 3.6865 1 7 1C10.3135 1 13 3.6865 13 7C13 10.3135 10.3135 13 7 13C3.6865 13 1 10.3135 1 7ZM4.15259 4.15259C4.34546 3.95972 4.65731 3.95701 4.8535 4.1465L7 6.293L9.1465 4.1465C9.34269 3.95701 9.65454 3.95972 9.84741 4.15259C10.0403 4.34546 10.043 4.65731 9.8535 4.8535L7.707 7L9.8535 9.1465C10.043 9.34269 10.0403 9.65454 9.84741 9.84741C9.65454 10.0403 9.34269 10.043 9.1465 9.8535L7 7.707L4.8535 9.8535C4.72796 9.98348 4.54206 10.0356 4.36725 9.98985C4.19243 9.94409 4.05591 9.80757 4.01015 9.63275C3.96439 9.45794 4.01652 9.27204 4.1465 9.1465L6.293 7L4.1465 4.8535C3.95701 4.65731 3.95972 4.34546 4.15259 4.15259Z" fill="white"/>
</g>
</svg>
