<svg width="14" height="14" viewBox="0 0 14 14" fill="none" xmlns="http://www.w3.org/2000/svg">
<g id="&#229;&#183;&#178;&#229;&#174;&#140;&#230;&#136;&#144;">
<path id="&#229;&#189;&#162;&#231;&#138;&#182;" fill-rule="evenodd" clip-rule="evenodd" d="M7 14C3.13392 14 0 10.866 0 6.99996C0 3.1339 3.1339 0 7 0C10.8659 0 14 3.13391 14 6.99996C14 10.866 10.8659 14 7 14ZM6.96215 1.08883C3.6992 1.08883 1.05446 3.73375 1.05446 6.99662C1.05446 10.2594 3.6992 12.9044 6.96215 12.9044C10.2246 12.9044 12.8697 10.2594 12.8697 6.99662C12.8697 3.73375 10.2245 1.08883 6.96215 1.08883ZM6.87199 9.32857L10.2038 5.9884C10.3039 5.88797 10.3659 5.74921 10.3659 5.59583C10.3659 5.28936 10.1172 5.04083 9.81083 5.04083C9.6576 5.04083 9.51817 5.10285 9.41764 5.20352L6.47872 8.1495L4.65838 6.32207C4.55766 6.22132 4.41874 6.15893 4.26507 6.15893C3.95879 6.15893 3.70977 6.40746 3.70977 6.71464C3.70977 6.86768 3.77174 7.00623 3.87215 7.1065L6.08576 9.32826C6.18622 9.42861 6.3254 9.49132 6.47872 9.49132C6.63264 9.49132 6.77122 9.42924 6.87199 9.32826V9.32857Z" fill="white"/>
</g>
</svg>
